

<svg  xmlns="http://www.w3.org/2000/svg"
      xmlns:xlink="http://www.w3.org/1999/xlink"
      height="240" width="20*pen.line_height">

  <line x1="0" y1="40" x2="800" y2="40"
      stroke-width="1" stroke="blue"/>
  <line x1="0" y1="80" x2="800" y2="80"
      stroke-width="1" stroke="blue"/>

  <line x1="0" y1="120" x2="800" y2="120"
      stroke-width="1" stroke="blue"/>
  <line x1="0" y1="160" x2="800" y2="160"
      stroke-width="1" stroke="blue"/>

<line x1="48.76808885641496" y1="46.74926990170866" x2="55.27946662292627" y2="40.0" stroke-width="1.0" stroke="black" /><polygon points="33.83022221559489,46.42787609686539 26.16977778440511,52.85575219373078 26.16977778440511,73.57212390313461 33.83022221559489,67.14424780626922" style="fill:black;stroke:black;stroke-width:0.5" /><polygon points="33.83022221559489,67.14424780626922 26.16977778440511,73.57212390313461 33.83022221559489,80.0 41.490666646784675,73.57212390313461" style="fill:black;stroke:black;stroke-width:0.5" /><polygon points="41.490666646784675,40.0 33.83022221559489,46.42787609686539 41.490666646784675,52.85575219373078 49.15111107797445,46.42787609686539" style="fill:black;stroke:black;stroke-width:0.5" /><polygon points="49.15111107797445,46.42787609686539 41.490666646784675,52.85575219373078 41.490666646784675,99.28362829059618 49.15111107797445,92.8557521937308" style="fill:black;stroke:black;stroke-width:0.5" /><polygon points="33.83022221559489,92.8557521937308 26.16977778440511,99.28362829059618 33.83022221559489,105.71150438746157 41.490666646784675,99.28362829059618" style="fill:black;stroke:black;stroke-width:0.5" /><polygon points="64.47199994035401,46.42787609686539 56.811555509164236,52.85575219373078 56.811555509164236,73.57212390313461 64.47199994035401,67.14424780626922" style="fill:black;stroke:black;stroke-width:0.5" /><polygon points="64.47199994035401,67.14424780626922 56.811555509164236,73.57212390313461 64.47199994035401,80.0 72.13244437154378,73.57212390313461" style="fill:black;stroke:black;stroke-width:0.5" /><polygon points="72.13244437154378,40.0 64.47199994035401,46.42787609686539 72.1324443715438,52.85575219373078 79.79288880273357,46.42787609686539" style="fill:black;stroke:black;stroke-width:0.5" /><polygon points="79.79288880273357,46.42787609686539 72.1324443715438,52.85575219373078 72.1324443715438,73.57212390313461 79.79288880273357,67.14424780626922" style="fill:black;stroke:black;stroke-width:0.5" /><polygon points="95.11377766511313,34.85769912250768 87.45333323392336,41.28557521937307 87.45333323392336,73.57212390313461 95.11377766511313,67.14424780626922" style="fill:black;stroke:black;stroke-width:0.5" /><polygon points="95.11377766511313,67.14424780626922 87.45333323392336,73.57212390313461 95.11377766511313,80.0 102.7742220963029,73.57212390313461" style="fill:black;stroke:black;stroke-width:0.5" /><polygon points="88.9854221201613,40.0 81.32497768897153,46.42787609686539 100.47608876694598,46.42787609686539 108.13653319813575,40.0" style="fill:black;stroke:black;stroke-width:0.5" /><polygon points="111.96675541373065,14.288495612538428 104.30631098254088,20.71637170940382 110.43466652749271,25.858672586896137 118.09511095868248,19.430796490030747" style="fill:black;stroke:black;stroke-width:0.5" /><polygon points="118.09511095868248,19.430796490030747 110.43466652749271,25.858672586896137 110.43466652749271,74.85769912250768 118.09511095868248,68.42982302564229" style="fill:black;stroke:black;stroke-width:0.5" /><polygon points="118.09511095868248,68.42982302564229 110.43466652749271,74.85769912250768 116.56302207244454,80.0 124.22346650363431,73.57212390313461" style="fill:black;stroke:black;stroke-width:0.5" /><polygon points="125.75555538987228,40.0 118.09511095868251,46.42787609686539 125.75555538987228,52.85575219373078 133.41599982106206,46.42787609686539" style="fill:black;stroke:black;stroke-width:0.5" /><polygon points="133.41599982106206,46.42787609686539 125.75555538987228,52.85575219373078 125.75555538987228,74.85769912250768 133.41599982106206,68.42982302564229" style="fill:black;stroke:black;stroke-width:0.5" /><polygon points="133.41599982106206,68.42982302564229 125.75555538987228,74.85769912250768 131.88391093482412,80.0 139.5443553660139,73.57212390313461" style="fill:black;stroke:black;stroke-width:0.5" /><polygon points="142.60853313848978,40.0 134.9480887073,46.42787609686539 141.07644425225183,51.57017697435771 148.7368886834416,45.14230087749232" style="fill:black;stroke:black;stroke-width:0.5" /><polygon points="148.7368886834416,45.14230087749232 141.07644425225183,51.57017697435771 141.07644425225183,74.85769912250768 148.7368886834416,68.42982302564229" style="fill:black;stroke:black;stroke-width:0.5" /><polygon points="148.7368886834416,68.42982302564229 141.07644425225183,74.85769912250768 147.20479979720366,80.0 154.86524422839344,73.57212390313461" style="fill:black;stroke:black;stroke-width:0.5" /><polygon points="142.60853313848978,27.144247806269217 134.9480887073,33.57212390313461 142.60853313848978,40.0 150.26897756967955,33.57212390313461" style="fill:black;stroke:black;stroke-width:0.5" /><polygon points="164.05777754582115,46.42787609686539 156.39733311463138,52.85575219373078 156.39733311463138,73.57212390313461 164.05777754582115,67.14424780626922" style="fill:black;stroke:black;stroke-width:0.5" /><polygon points="164.05777754582115,67.14424780626922 156.39733311463138,73.57212390313461 164.05777754582115,80.0 171.71822197701093,73.57212390313461" style="fill:black;stroke:black;stroke-width:0.5" /><polygon points="171.71822197701093,40.0 164.05777754582115,46.42787609686539 171.71822197701093,52.85575219373078 179.3786664082007,46.42787609686539" style="fill:black;stroke:black;stroke-width:0.5" />

<polygon points="79.79288880273357,100.71637170940382 72.1324443715438,107.1442478062692 72.1324443715438,153.5721239031346 79.79288880273357,147.1442478062692" style="fill:black;stroke:black;stroke-width:0.5" /><polygon points="79.79288880273357,147.1442478062692 72.1324443715438,153.5721239031346 79.79288880273359,160.0 87.45333323392336,153.57212390313458" style="fill:black;stroke:black;stroke-width:0.5" /><polygon points="87.45333323392336,94.28849561253843 79.79288880273359,100.71637170940382 87.45333323392336,107.1442478062692 95.11377766511313,100.71637170940382" style="fill:black;stroke:black;stroke-width:0.5" /><polygon points="73.66453325778174,120.0 66.00408882659197,126.42787609686539 85.15519990456642,126.42787609686539 92.81564433575619,120.0" style="fill:black;stroke:black;stroke-width:0.5" /><polygon points="102.7742220963029,126.4278760968654 95.11377766511313,132.8557521937308 95.11377766511313,153.5721239031346 102.7742220963029,147.1442478062692" style="fill:black;stroke:black;stroke-width:0.5" /><polygon points="102.7742220963029,147.1442478062692 95.11377766511313,153.5721239031346 102.7742220963029,160.0 110.43466652749268,153.57212390313458" style="fill:black;stroke:black;stroke-width:0.5" /><polygon points="110.43466652749268,120.0 102.7742220963029,126.42787609686539 110.4346665274927,132.8557521937308 118.09511095868247,126.4278760968654" style="fill:black;stroke:black;stroke-width:0.5" /><polygon points="118.09511095868247,126.4278760968654 110.4346665274927,132.8557521937308 110.4346665274927,153.5721239031346 118.09511095868247,147.1442478062692" style="fill:black;stroke:black;stroke-width:0.5" /><polygon points="127.2876442761102,120.0 119.62719984492043,126.42787609686539 125.75555538987226,132.8557521937308 133.41599982106203,126.4278760968654" style="fill:black;stroke:black;stroke-width:0.5" /><polygon points="133.41599982106203,126.4278760968654 125.75555538987226,132.8557521937308 125.75555538987226,154.85769912250768 133.41599982106203,148.42982302564226" style="fill:black;stroke:black;stroke-width:0.5" /><polygon points="133.41599982106203,148.42982302564226 125.75555538987226,154.85769912250768 131.8839109348241,160.0 139.54435536601386,153.57212390313458" style="fill:black;stroke:black;stroke-width:0.5" /><polygon points="141.07644425225183,120.0 133.41599982106206,126.42787609686539 141.07644425225183,132.8557521937308 148.7368886834416,126.4278760968654" style="fill:black;stroke:black;stroke-width:0.5" /><polygon points="148.7368886834416,126.4278760968654 141.07644425225183,132.8557521937308 141.07644425225183,154.85769912250768 148.7368886834416,148.42982302564226" style="fill:black;stroke:black;stroke-width:0.5" /><polygon points="148.7368886834416,148.42982302564226 141.07644425225183,154.85769912250768 147.20479979720366,160.0 154.86524422839344,153.57212390313458" style="fill:black;stroke:black;stroke-width:0.5" /><polygon points="164.05777754582115,114.85769912250768 156.39733311463138,121.28557521937307 156.39733311463138,153.5721239031346 164.05777754582115,147.1442478062692" style="fill:black;stroke:black;stroke-width:0.5" /><polygon points="164.05777754582115,147.1442478062692 156.39733311463138,153.5721239031346 164.05777754582115,160.0 171.71822197701093,153.57212390313458" style="fill:black;stroke:black;stroke-width:0.5" /><polygon points="157.92942200086932,120.0 150.26897756967955,126.42787609686539 169.420088647654,126.42787609686539 177.08053307884379,120.0" style="fill:black;stroke:black;stroke-width:0.5" />

</svg>
