

<svg  xmlns="http://www.w3.org/2000/svg"
      xmlns:xlink="http://www.w3.org/1999/xlink"
      height="480" width="20*pen.line_height">

  <line x1="0" y1="80" x2="1600" y2="80"
      stroke-width="1" stroke="blue"/>
  <line x1="0" y1="160" x2="1600" y2="160"
      stroke-width="1" stroke="blue"/>

  <line x1="0" y1="240" x2="1600" y2="240"
      stroke-width="1" stroke="blue"/>
  <line x1="0" y1="320" x2="1600" y2="320"
      stroke-width="1" stroke="blue"/>

<line x1="97.53617771282993" y1="93.49853980341732" x2="110.55893324585254" y2="80.0" stroke-width="2.0" stroke="black" /><polygon points="67.66044443118977,92.85575219373078 52.33955556881022,105.71150438746156 52.33955556881022,147.14424780626922 67.66044443118977,134.28849561253844" style="fill:black;stroke:black;stroke-width:0.5" /><polygon points="67.66044443118977,134.28849561253844 52.33955556881022,147.14424780626922 67.66044443118977,160.0 82.98133329356935,147.14424780626922" style="fill:black;stroke:black;stroke-width:0.5" /><polygon points="82.98133329356935,80.0 67.66044443118977,92.85575219373078 82.98133329356935,105.71150438746156 98.3022221559489,92.85575219373078" style="fill:black;stroke:black;stroke-width:0.5" /><polygon points="98.3022221559489,92.85575219373078 82.98133329356935,105.71150438746156 82.98133329356935,198.56725658119237 98.3022221559489,185.7115043874616" style="fill:black;stroke:black;stroke-width:0.5" /><polygon points="67.66044443118977,185.7115043874616 52.33955556881022,198.56725658119237 67.66044443118977,211.42300877492315 82.98133329356935,198.56725658119237" style="fill:black;stroke:black;stroke-width:0.5" /><polygon points="128.94399988070802,92.85575219373078 113.62311101832847,105.71150438746156 113.62311101832847,147.14424780626922 128.94399988070802,134.28849561253844" style="fill:black;stroke:black;stroke-width:0.5" /><polygon points="128.94399988070802,134.28849561253844 113.62311101832847,147.14424780626922 128.94399988070802,160.0 144.26488874308757,147.14424780626922" style="fill:black;stroke:black;stroke-width:0.5" /><polygon points="144.26488874308757,80.0 128.94399988070802,92.85575219373078 144.2648887430876,105.71150438746156 159.58577760546714,92.85575219373078" style="fill:black;stroke:black;stroke-width:0.5" /><polygon points="159.58577760546714,92.85575219373078 144.2648887430876,105.71150438746156 144.2648887430876,147.14424780626922 159.58577760546714,134.28849561253844" style="fill:black;stroke:black;stroke-width:0.5" /><polygon points="190.22755533022627,69.71539824501536 174.90666646784672,82.57115043874614 174.90666646784672,147.14424780626922 190.22755533022627,134.28849561253844" style="fill:black;stroke:black;stroke-width:0.5" /><polygon points="190.22755533022627,134.28849561253844 174.90666646784672,147.14424780626922 190.22755533022627,160.0 205.5484441926058,147.14424780626922" style="fill:black;stroke:black;stroke-width:0.5" /><polygon points="177.9708442403226,80.0 162.64995537794306,92.85575219373078 200.95217753389196,92.85575219373078 216.2730663962715,80.0" style="fill:black;stroke:black;stroke-width:0.5" /><polygon points="223.9335108274613,28.576991225076856 208.61262196508176,41.43274341880764 220.86933305498542,51.717345173792275 236.19022191736497,38.861592980061495" style="fill:black;stroke:black;stroke-width:0.5" /><polygon points="236.19022191736497,38.861592980061495 220.86933305498542,51.717345173792275 220.86933305498542,149.71539824501536 236.19022191736497,136.85964605128459" style="fill:black;stroke:black;stroke-width:0.5" /><polygon points="236.19022191736497,136.85964605128459 220.86933305498542,149.71539824501536 233.12604414488908,160.0 248.44693300726863,147.14424780626922" style="fill:black;stroke:black;stroke-width:0.5" /><polygon points="251.51111077974457,80.0 236.19022191736502,92.85575219373078 251.51111077974457,105.71150438746156 266.8319996421241,92.85575219373078" style="fill:black;stroke:black;stroke-width:0.5" /><polygon points="266.8319996421241,92.85575219373078 251.51111077974457,105.71150438746156 251.51111077974457,149.71539824501536 266.8319996421241,136.85964605128459" style="fill:black;stroke:black;stroke-width:0.5" /><polygon points="266.8319996421241,136.85964605128459 251.51111077974457,149.71539824501536 263.76782186964823,160.0 279.0887107320278,147.14424780626922" style="fill:black;stroke:black;stroke-width:0.5" /><polygon points="285.21706627697955,80.0 269.8961774146,92.85575219373078 282.15288850450366,103.14035394871541 297.4737773668832,90.28460175498464" style="fill:black;stroke:black;stroke-width:0.5" /><polygon points="297.4737773668832,90.28460175498464 282.15288850450366,103.14035394871541 282.15288850450366,149.71539824501536 297.4737773668832,136.85964605128459" style="fill:black;stroke:black;stroke-width:0.5" /><polygon points="297.4737773668832,136.85964605128459 282.15288850450366,149.71539824501536 294.4095995944073,160.0 309.7304884567869,147.14424780626922" style="fill:black;stroke:black;stroke-width:0.5" /><polygon points="285.21706627697955,54.28849561253843 269.8961774146,67.14424780626922 285.21706627697955,80.0 300.5379551393591,67.14424780626922" style="fill:black;stroke:black;stroke-width:0.5" /><polygon points="328.1155550916423,92.85575219373078 312.79466622926276,105.71150438746156 312.79466622926276,147.14424780626922 328.1155550916423,134.28849561253844" style="fill:black;stroke:black;stroke-width:0.5" /><polygon points="328.1155550916423,134.28849561253844 312.79466622926276,147.14424780626922 328.1155550916423,160.0 343.43644395402185,147.14424780626922" style="fill:black;stroke:black;stroke-width:0.5" /><polygon points="343.43644395402185,80.0 328.1155550916423,92.85575219373078 343.43644395402185,105.71150438746156 358.7573328164014,92.85575219373078" style="fill:black;stroke:black;stroke-width:0.5" />

<polygon points="159.58577760546714,201.43274341880763 144.2648887430876,214.2884956125384 144.2648887430876,307.1442478062692 159.58577760546714,294.2884956125384" style="fill:black;stroke:black;stroke-width:0.5" /><polygon points="159.58577760546714,294.2884956125384 144.2648887430876,307.1442478062692 159.58577760546717,320.0 174.90666646784672,307.14424780626916" style="fill:black;stroke:black;stroke-width:0.5" /><polygon points="174.90666646784672,188.57699122507685 159.58577760546717,201.43274341880763 174.90666646784672,214.2884956125384 190.22755533022627,201.43274341880763" style="fill:black;stroke:black;stroke-width:0.5" /><polygon points="147.32906651556348,240.0 132.00817765318394,252.85575219373078 170.31039980913283,252.85575219373078 185.63128867151238,240.0" style="fill:black;stroke:black;stroke-width:0.5" /><polygon points="205.5484441926058,252.8557521937308 190.22755533022627,265.7115043874616 190.22755533022627,307.1442478062692 205.5484441926058,294.2884956125384" style="fill:black;stroke:black;stroke-width:0.5" /><polygon points="205.5484441926058,294.2884956125384 190.22755533022627,307.1442478062692 205.5484441926058,320.0 220.86933305498536,307.14424780626916" style="fill:black;stroke:black;stroke-width:0.5" /><polygon points="220.86933305498536,240.0 205.5484441926058,252.85575219373078 220.8693330549854,265.7115043874616 236.19022191736494,252.8557521937308" style="fill:black;stroke:black;stroke-width:0.5" /><polygon points="236.19022191736494,252.8557521937308 220.8693330549854,265.7115043874616 220.8693330549854,307.1442478062692 236.19022191736494,294.2884956125384" style="fill:black;stroke:black;stroke-width:0.5" /><polygon points="254.5752885522204,240.0 239.25439968984085,252.85575219373078 251.5111107797445,265.7115043874616 266.83199964212406,252.8557521937308" style="fill:black;stroke:black;stroke-width:0.5" /><polygon points="266.83199964212406,252.8557521937308 251.5111107797445,265.7115043874616 251.5111107797445,309.71539824501536 266.83199964212406,296.8596460512845" style="fill:black;stroke:black;stroke-width:0.5" /><polygon points="266.83199964212406,296.8596460512845 251.5111107797445,309.71539824501536 263.7678218696482,320.0 279.0887107320277,307.14424780626916" style="fill:black;stroke:black;stroke-width:0.5" /><polygon points="282.15288850450366,240.0 266.8319996421241,252.85575219373078 282.15288850450366,265.7115043874616 297.4737773668832,252.8557521937308" style="fill:black;stroke:black;stroke-width:0.5" /><polygon points="297.4737773668832,252.8557521937308 282.15288850450366,265.7115043874616 282.15288850450366,309.71539824501536 297.4737773668832,296.8596460512845" style="fill:black;stroke:black;stroke-width:0.5" /><polygon points="297.4737773668832,296.8596460512845 282.15288850450366,309.71539824501536 294.4095995944073,320.0 309.7304884567869,307.14424780626916" style="fill:black;stroke:black;stroke-width:0.5" /><polygon points="328.1155550916423,229.71539824501536 312.79466622926276,242.57115043874614 312.79466622926276,307.1442478062692 328.1155550916423,294.2884956125384" style="fill:black;stroke:black;stroke-width:0.5" /><polygon points="328.1155550916423,294.2884956125384 312.79466622926276,307.1442478062692 328.1155550916423,320.0 343.43644395402185,307.14424780626916" style="fill:black;stroke:black;stroke-width:0.5" /><polygon points="315.85884400173865,240.0 300.5379551393591,252.85575219373078 338.840177295308,252.85575219373078 354.16106615768757,240.0" style="fill:black;stroke:black;stroke-width:0.5" />

</svg>
