

<svg  xmlns="http://www.w3.org/2000/svg"
      xmlns:xlink="http://www.w3.org/1999/xlink"
      height="240" width="20*pen.line_height">

  <line x1="0" y1="40" x2="800" y2="40"
      stroke-width="1" stroke="blue"/>
  <line x1="0" y1="80" x2="800" y2="80"
      stroke-width="1" stroke="blue"/>

  <line x1="0" y1="120" x2="800" y2="120"
      stroke-width="1" stroke="blue"/>
  <line x1="0" y1="160" x2="800" y2="160"
      stroke-width="1" stroke="blue"/>

<line x1="48.76808885641496" y1="46.74926990170866" x2="55.27946662292627" y2="40.0" stroke-width="1.0" stroke="black" /><polygon points="33.83022221559489,46.42787609686539 26.16977778440511,52.85575219373078 26.16977778440511,73.57212390313461 33.83022221559489,67.14424780626922" style="fill:black;stroke:black;stroke-width:0" /><polygon points="33.83022221559489,67.14424780626922 26.16977778440511,73.57212390313461 33.83022221559489,80.0 41.490666646784675,73.57212390313461" style="fill:black;stroke:black;stroke-width:0" /><polygon points="41.490666646784675,40.0 33.83022221559489,46.42787609686539 41.490666646784675,52.85575219373078 49.15111107797445,46.42787609686539" style="fill:black;stroke:black;stroke-width:0" /><polygon points="49.15111107797445,46.42787609686539 41.490666646784675,52.85575219373078 41.490666646784675,99.28362829059618 49.15111107797445,92.8557521937308" style="fill:black;stroke:black;stroke-width:0" /><polygon points="33.83022221559489,92.8557521937308 26.16977778440511,99.28362829059618 33.83022221559489,105.71150438746157 41.490666646784675,99.28362829059618" style="fill:black;stroke:black;stroke-width:0" /><polygon points="64.47199994035401,46.42787609686539 56.811555509164236,52.85575219373078 56.811555509164236,73.57212390313461 64.47199994035401,67.14424780626922" style="fill:black;stroke:black;stroke-width:0" /><polygon points="64.47199994035401,67.14424780626922 56.811555509164236,73.57212390313461 64.47199994035401,80.0 72.13244437154378,73.57212390313461" style="fill:black;stroke:black;stroke-width:0" /><polygon points="72.13244437154378,40.0 64.47199994035401,46.42787609686539 72.1324443715438,52.85575219373078 79.79288880273357,46.42787609686539" style="fill:black;stroke:black;stroke-width:0" /><polygon points="79.79288880273357,46.42787609686539 72.1324443715438,52.85575219373078 72.1324443715438,73.57212390313461 79.79288880273357,67.14424780626922" style="fill:black;stroke:black;stroke-width:0" /><polygon points="95.11377766511313,34.85769912250768 87.45333323392336,41.28557521937307 87.45333323392336,76.7860619515673 95.11377766511313,70.35818585470192" style="fill:black;stroke:black;stroke-width:0" /><polygon points="91.28355544951825,67.14424780626922 83.62311101832847,73.57212390313461 91.28355544951825,80.0 98.94399988070802,73.57212390313461" style="fill:black;stroke:black;stroke-width:0" /><polygon points="88.9854221201613,40.0 81.32497768897153,46.42787609686539 100.47608876694598,46.42787609686539 108.13653319813575,40.0" style="fill:black;stroke:black;stroke-width:0" /><polygon points="114.2648887430876,14.288495612538428 106.60444431189782,20.71637170940382 114.2648887430876,27.14424780626921 121.92533317427737,20.71637170940382" style="fill:black;stroke:black;stroke-width:0" /><polygon points="118.09511095868248,17.502433660971125 110.43466652749271,23.930309757836515 110.43466652749271,76.7860619515673 118.09511095868248,70.35818585470192" style="fill:black;stroke:black;stroke-width:0" /><polygon points="114.2648887430876,67.14424780626922 106.60444431189782,73.57212390313461 114.2648887430876,80.0 121.92533317427737,73.57212390313461" style="fill:black;stroke:black;stroke-width:0" /><polygon points="125.75555538987228,40.0 118.09511095868251,46.42787609686539 125.75555538987228,52.85575219373078 133.41599982106206,46.42787609686539" style="fill:black;stroke:black;stroke-width:0" /><polygon points="133.41599982106206,46.42787609686539 125.75555538987228,52.85575219373078 125.75555538987228,76.7860619515673 133.41599982106206,70.35818585470192" style="fill:black;stroke:black;stroke-width:0" /><polygon points="129.58577760546717,67.14424780626922 121.9253331742774,73.57212390313461 129.58577760546717,80.0 137.24622203665695,73.57212390313461" style="fill:black;stroke:black;stroke-width:0" /><polygon points="144.90666646784672,40.0 137.24622203665695,46.42787609686539 144.90666646784672,52.85575219373078 152.5671108990365,46.42787609686539" style="fill:black;stroke:black;stroke-width:0" /><polygon points="148.7368886834416,43.213938048432695 141.07644425225183,49.641814145298085 141.07644425225183,76.7860619515673 148.7368886834416,70.35818585470192" style="fill:black;stroke:black;stroke-width:0" /><polygon points="144.90666646784672,67.14424780626922 137.24622203665695,73.57212390313461 144.90666646784672,80.0 152.5671108990365,73.57212390313461" style="fill:black;stroke:black;stroke-width:0" /><polygon points="144.90666646784672,27.144247806269217 137.24622203665695,33.57212390313461 144.90666646784672,40.0 152.5671108990365,33.57212390313461" style="fill:black;stroke:black;stroke-width:0" /><polygon points="164.05777754582115,46.42787609686539 156.39733311463138,52.85575219373078 156.39733311463138,73.57212390313461 164.05777754582115,67.14424780626922" style="fill:black;stroke:black;stroke-width:0" /><polygon points="164.05777754582115,67.14424780626922 156.39733311463138,73.57212390313461 164.05777754582115,80.0 171.71822197701093,73.57212390313461" style="fill:black;stroke:black;stroke-width:0" /><polygon points="171.71822197701093,40.0 164.05777754582115,46.42787609686539 171.71822197701093,52.85575219373078 179.3786664082007,46.42787609686539" style="fill:black;stroke:black;stroke-width:0" />

<polygon points="95.11377766511313,100.71637170940382 87.45333323392336,107.1442478062692 87.45333323392336,156.7860619515673 95.11377766511313,150.35818585470187" style="fill:black;stroke:black;stroke-width:0" /><polygon points="91.28355544951825,147.14424780626916 83.62311101832847,153.57212390313458 91.28355544951825,160.0 98.94399988070802,153.57212390313458" style="fill:black;stroke:black;stroke-width:0" /><polygon points="102.7742220963029,94.28849561253843 95.11377766511313,100.71637170940382 102.7742220963029,107.1442478062692 110.43466652749268,100.71637170940382" style="fill:black;stroke:black;stroke-width:0" /><polygon points="88.9854221201613,120.0 81.32497768897153,126.42787609686539 100.47608876694598,126.42787609686539 108.13653319813575,120.0" style="fill:black;stroke:black;stroke-width:0" /><polygon points="118.09511095868248,126.4278760968654 110.43466652749271,132.8557521937308 110.43466652749271,153.5721239031346 118.09511095868248,147.1442478062692" style="fill:black;stroke:black;stroke-width:0" /><polygon points="118.09511095868248,147.1442478062692 110.43466652749271,153.5721239031346 118.09511095868248,160.0 125.75555538987226,153.57212390313458" style="fill:black;stroke:black;stroke-width:0" /><polygon points="125.75555538987228,120.0 118.09511095868251,126.42787609686539 125.75555538987228,132.8557521937308 133.41599982106206,126.4278760968654" style="fill:black;stroke:black;stroke-width:0" /><polygon points="133.41599982106206,126.4278760968654 125.75555538987228,132.8557521937308 125.75555538987228,153.5721239031346 133.41599982106206,147.1442478062692" style="fill:black;stroke:black;stroke-width:0" /><polygon points="144.90666646784672,120.0 137.24622203665695,126.42787609686539 144.90666646784672,132.8557521937308 152.5671108990365,126.4278760968654" style="fill:black;stroke:black;stroke-width:0" /><polygon points="148.7368886834416,123.2139380484327 141.07644425225183,129.6418141452981 141.07644425225183,156.7860619515673 148.7368886834416,150.35818585470187" style="fill:black;stroke:black;stroke-width:0" /><polygon points="144.90666646784672,147.14424780626916 137.24622203665695,153.57212390313458 144.90666646784672,160.0 152.5671108990365,153.57212390313458" style="fill:black;stroke:black;stroke-width:0" /><polygon points="156.39733311463138,120.0 148.7368886834416,126.42787609686539 156.39733311463138,132.8557521937308 164.05777754582115,126.4278760968654" style="fill:black;stroke:black;stroke-width:0" /><polygon points="164.05777754582115,126.4278760968654 156.39733311463138,132.8557521937308 156.39733311463138,156.7860619515673 164.05777754582115,150.35818585470187" style="fill:black;stroke:black;stroke-width:0" /><polygon points="160.22755533022627,147.14424780626916 152.5671108990365,153.57212390313458 160.22755533022627,160.0 167.88799976141604,153.57212390313458" style="fill:black;stroke:black;stroke-width:0" /><polygon points="179.37866640820073,114.85769912250768 171.71822197701096,121.28557521937307 171.71822197701096,156.7860619515673 179.37866640820073,150.35818585470187" style="fill:black;stroke:black;stroke-width:0" /><polygon points="175.54844419260584,147.14424780626916 167.88799976141607,153.57212390313458 175.54844419260584,160.0 183.20888862379562,153.57212390313458" style="fill:black;stroke:black;stroke-width:0" /><polygon points="173.2503108632489,120.0 165.58986643205913,126.42787609686539 184.7409775100336,126.42787609686539 192.40142194122336,120.0" style="fill:black;stroke:black;stroke-width:0" />

</svg>
